{
  "source": "C:\\Users\\Peter\\Desktop\\stuff\\MIUN\\quantitative_research\\video_compression\\videos\\BVI-HD\\BVI-HD_CDVL_videos\\ORIG\\BubblesPitcher_1920x1080_60fps.mp4",
  "output": "C:\\Users\\Peter\\Desktop\\stuff\\MIUN\\quantitative_research\\video_compression\\compressed_videos\\BVI-HD\\av1\\8\\BubblesPitcher_1920x1080_60fps_av1.mkv",
  "codec": "av1",
  "ok": "Input #0, mov,mp4,m4a,3gp,3g2,mj2, from 'C:\\Users\\Peter\\Desktop\\stuff\\MIUN\\quantitative_research\\video_compression\\videos\\BVI-HD\\BVI-HD_CDVL_videos\\ORIG\\BubblesPitcher_1920x1080_60fps.mp4':\n  Metadata:\n    major_brand     : isom\n    minor_version   : 512\n    compatible_brands: isomiso2avc1mp41\n    encoder         : Lavf54.28.101\n  Duration: 00:00:05.00, start: 0.000000, bitrate: 188849 kb/s\n  Stream #0:0[0x1](und): Video: h264 (High 4:4:4 Predictive) (avc1 / 0x31637661), yuv420p(progressive), 1920x1080, 188844 kb/s, 60 fps, 60 tbr, 60 tbn (default)\n    Metadata:\n      handler_name    : VideoHandler\n      vendor_id       : [0][0][0][0]\n[out#0/matroska @ 000002860bd0cd80] Codec AVOption b:a (set bitrate (in bits/s)) has not been used for any stream. The most likely reason is either wrong type (e.g. a video option with no video streams) or that it is a private option of some decoder which was not actually used for any stream.\nStream mapping:\n  Stream #0:0 -> #0:0 (h264 (native) -> av1 (libsvtav1))\nPress [q] to stop, [?] for help\nSvt[info]: -------------------------------------------\nSvt[info]: SVT [version]:\tSVT-AV1 Encoder Lib v3.1.0-19-g6ecfe8ec\nSvt[info]: SVT [build]  :\tGCC 15.2.0\t 64 bit\nSvt[info]: LIB Build date: Aug 17 2025 11:37:13\nSvt[info]: -------------------------------------------\nSvt[info]: Level of Parallelism: 5\nSvt[info]: Number of PPCS 93\nSvt[info]: [asm level on system : up to avx2]\nSvt[info]: [asm level selected : up to avx2]\nSvt[info]: -------------------------------------------\nSvt[info]: SVT [config]: main profile\ttier (auto)\tlevel (auto)\nSvt[info]: SVT [config]: width / height / fps numerator / fps denominator \t\t: 1920 / 1080 / 60 / 1\nSvt[info]: SVT [config]: bit-depth / color format \t\t\t\t\t: 8 / YUV420\nSvt[info]: SVT [config]: preset / tune / pred struct \t\t\t\t\t: 4 / PSNR / random access\nSvt[info]: SVT [config]: gop size / mini-gop size / key-frame type \t\t\t: 321 / 16 / key frame\nSvt[info]: SVT [config]: BRC mode / target bitrate (kbps)\t\t\t\t: VBR / 8000 \nSvt[info]: SVT [config]: AQ mode / Variance Boost \t\t\t\t\t: 2 / 0\nSvt[info]: SVT [config]: sharpness / luminance-based QP bias \t\t\t\t: 0 / 0\nSvt[info]: SVT [config]: QP scale compress strength \t\t\t\t\t: 0\nSvt[info]: -------------------------------------------\nOutput #0, matroska, to 'C:\\Users\\Peter\\Desktop\\stuff\\MIUN\\quantitative_research\\video_compression\\compressed_videos\\BVI-HD\\av1\\8\\BubblesPitcher_1920x1080_60fps_av1.mkv':\n  Metadata:\n    major_brand     : isom\n    minor_version   : 512\n    compatible_brands: isomiso2avc1mp41\n    encoder         : Lavf62.3.100\n  Stream #0:0(und): Video: av1 (AV01 / 0x31305641), yuv420p(tv, progressive), 1920x1080, q=2-31, 8000 kb/s, 60 fps, 1k tbn (default)\n    Metadata:\n      encoder         : Lavc62.11.100 libsvtav1\n      handler_name    : VideoHandler\n      vendor_id       : [0][0][0][0]\n    Side data:\n      cpb: bitrate max/min/avg: 0/0/8000000 buffer size: 8000000 vbv_delay: N/A\nframe=    0 fps=0.0 q=0.0 size=       0KiB time=N/A bitrate=N/A speed=N/A elapsed=0:00:00.52    \nframe=    0 fps=0.0 q=0.0 size=       0KiB time=N/A bitrate=N/A speed=N/A elapsed=0:00:01.21    \nframe=    0 fps=0.0 q=0.0 size=       0KiB time=N/A bitrate=N/A speed=N/A elapsed=0:00:01.79    \nframe=    0 fps=0.0 q=0.0 size=       0KiB time=N/A bitrate=N/A speed=N/A elapsed=0:00:02.33    \nframe=    0 fps=0.0 q=0.0 size=       0KiB time=N/A bitrate=N/A speed=N/A elapsed=0:00:02.91    \nframe=    0 fps=0.0 q=0.0 size=       0KiB time=N/A bitrate=N/A speed=N/A elapsed=0:00:03.43    \nframe=    0 fps=0.0 q=0.0 size=       0KiB time=N/A bitrate=N/A speed=N/A elapsed=0:00:03.96    \nframe=    0 fps=0.0 q=0.0 size=       0KiB time=N/A bitrate=N/A speed=N/A elapsed=0:00:04.50    \nframe=    0 fps=0.0 q=0.0 size=       0KiB time=N/A bitrate=N/A speed=N/A elapsed=0:00:05.07    \nframe=    0 fps=0.0 q=0.0 size=       0KiB time=N/A bitrate=N/A speed=N/A elapsed=0:00:05.63    \nframe=    1 fps=0.2 q=1.0 size=       1KiB time=00:00:00.00 bitrate=N/A speed=   0x elapsed=0:00:06.19    \nframe=    1 fps=0.1 q=1.0 size=       1KiB time=00:00:00.00 bitrate=N/A speed=   0x elapsed=0:00:06.73    \nframe=    3 fps=0.4 q=17.0 size=       1KiB time=00:00:00.03 bitrate= 170.9kbits/s speed=0.00456x elapsed=0:00:07.31    \nframe=    6 fps=0.8 q=16.0 size=       1KiB time=00:00:00.08 bitrate=  68.4kbits/s speed=0.0105x elapsed=0:00:07.90    \nframe=    8 fps=0.9 q=17.0 size=       1KiB time=00:00:00.11 bitrate=  48.8kbits/s speed=0.0138x elapsed=0:00:08.44    \nframe=   11 fps=1.2 q=15.0 size=       1KiB time=00:00:00.16 bitrate=  34.2kbits/s speed=0.0185x elapsed=0:00:09.01    \nframe=   14 fps=1.5 q=14.0 size=       1KiB time=00:00:00.20 bitrate=  28.5kbits/s speed=0.0209x elapsed=0:00:09.57    \nframe=   18 fps=1.8 q=13.0 size=       1KiB time=00:00:00.28 bitrate=  20.1kbits/s speed=0.028x elapsed=0:00:10.12    \nframe=   21 fps=2.0 q=13.0 size=       1KiB time=00:00:00.33 bitrate=  17.1kbits/s speed=0.0312x elapsed=0:00:10.67    \nframe=   22 fps=2.0 q=14.0 size=       1KiB time=00:00:00.35 bitrate=  16.3kbits/s speed=0.0311x elapsed=0:00:11.25    \nframe=   23 fps=1.9 q=14.0 size=       1KiB time=00:00:00.36 bitrate=  15.5kbits/s speed=0.031x elapsed=0:00:11.82    \nframe=   26 fps=2.1 q=15.0 size=       1KiB time=00:00:00.40 bitrate=  14.2kbits/s speed=0.0323x elapsed=0:00:12.39    \nframe=   27 fps=2.1 q=15.0 size=       1KiB time=00:00:00.43 bitrate=  13.1kbits/s speed=0.0333x elapsed=0:00:12.99    \nframe=   31 fps=2.3 q=15.0 size=       1KiB time=00:00:00.50 bitrate=  11.4kbits/s speed=0.037x elapsed=0:00:13.53    \nframe=   34 fps=2.4 q=13.0 size=       1KiB time=00:00:00.53 bitrate=  10.7kbits/s speed=0.0379x elapsed=0:00:14.07    \nframe=   36 fps=2.5 q=13.0 size=       1KiB time=00:00:00.58 bitrate=   9.8kbits/s speed=0.0398x elapsed=0:00:14.65    \nframe=   37 fps=2.4 q=13.0 size=       1KiB time=00:00:00.60 bitrate=   9.5kbits/s speed=0.0394x elapsed=0:00:15.23    \nframe=   38 fps=2.4 q=16.0 size=       1KiB time=00:00:00.61 bitrate=   9.2kbits/s speed=0.039x elapsed=0:00:15.79    \nframe=   41 fps=2.5 q=6.0 size=       1KiB time=00:00:00.66 bitrate=   8.5kbits/s speed=0.0407x elapsed=0:00:16.37    \nframe=   44 fps=2.6 q=18.0 size=       1KiB time=00:00:00.71 bitrate=   7.9kbits/s speed=0.0423x elapsed=0:00:16.92    \nframe=   47 fps=2.7 q=14.0 size=       1KiB time=00:00:00.76 bitrate=   7.4kbits/s speed=0.0439x elapsed=0:00:17.46    \nframe=   50 fps=2.8 q=17.0 size=       1KiB time=00:00:00.81 bitrate=   7.0kbits/s speed=0.0453x elapsed=0:00:18.01    \nframe=   52 fps=2.8 q=17.0 size=       1KiB time=00:00:00.85 bitrate=   6.7kbits/s speed=0.0457x elapsed=0:00:18.59    \nframe=   54 fps=2.8 q=19.0 size=       1KiB time=00:00:00.88 bitrate=   6.4kbits/s speed=0.0462x elapsed=0:00:19.13    \nframe=   57 fps=2.9 q=6.0 size=       1KiB time=00:00:00.93 bitrate=   6.1kbits/s speed=0.0474x elapsed=0:00:19.69    \nframe=   62 fps=3.1 q=17.0 size=       1KiB time=00:00:01.01 bitrate=   5.6kbits/s speed=0.0502x elapsed=0:00:20.25    \nframe=   66 fps=3.2 q=17.0 size=       1KiB time=00:00:01.08 bitrate=   5.3kbits/s speed=0.0521x elapsed=0:00:20.79    \nframe=   68 fps=3.2 q=17.0 size=       1KiB time=00:00:01.11 bitrate=   5.1kbits/s speed=0.0523x elapsed=0:00:21.36    \nframe=   69 fps=3.1 q=15.0 size=       1KiB time=00:00:01.13 bitrate=   5.0kbits/s speed=0.0516x elapsed=0:00:21.97    \nframe=   71 fps=3.2 q=16.0 size=       1KiB time=00:00:01.16 bitrate=   4.9kbits/s speed=0.0518x elapsed=0:00:22.53    \nframe=   76 fps=3.3 q=18.0 size=       1KiB time=00:00:01.25 bitrate=   4.6kbits/s speed=0.0541x elapsed=0:00:23.09    \nframe=   80 fps=3.4 q=19.0 size=       1KiB time=00:00:01.31 bitrate=   4.3kbits/s speed=0.0557x elapsed=0:00:23.63    \nframe=   84 fps=3.5 q=20.0 size=       1KiB time=00:00:01.38 bitrate=   4.1kbits/s speed=0.0573x elapsed=0:00:24.16    \nframe=   84 fps=3.4 q=20.0 size=       1KiB time=00:00:01.38 bitrate=   4.1kbits/s speed=0.056x elapsed=0:00:24.69    \nframe=   86 fps=3.4 q=20.0 size=       1KiB time=00:00:01.41 bitrate=   4.0kbits/s speed=0.0561x elapsed=0:00:25.23    \nframe=   90 fps=3.5 q=21.0 size=       1KiB time=00:00:01.46 bitrate=   3.9kbits/s speed=0.057x elapsed=0:00:25.74    \nframe=   94 fps=3.6 q=22.0 size=       1KiB time=00:00:01.55 bitrate=   3.7kbits/s speed=0.059x elapsed=0:00:26.28    \nframe=   98 fps=3.7 q=22.0 size=       1KiB time=00:00:01.61 bitrate=   3.5kbits/s speed=0.0603x elapsed=0:00:26.82    \nframe=  100 fps=3.7 q=22.0 size=       1KiB time=00:00:01.65 bitrate=   3.5kbits/s speed=0.0603x elapsed=0:00:27.37    \nframe=  101 fps=3.6 q=20.0 size=       1KiB time=00:00:01.66 bitrate=   3.4kbits/s speed=0.0596x elapsed=0:00:27.98    \nframe=  103 fps=3.6 q=22.0 size=       1KiB time=00:00:01.70 bitrate=   3.4kbits/s speed=0.0595x elapsed=0:00:28.54    \nframe=  108 fps=3.7 q=23.0 size=       1KiB time=00:00:01.78 bitrate=   3.2kbits/s speed=0.0613x elapsed=0:00:29.07    \nframe=  113 fps=3.8 q=2.0 size=       1KiB time=00:00:01.86 bitrate=   3.1kbits/s speed=0.063x elapsed=0:00:29.60    \nframe=  116 fps=3.8 q=25.0 size=       1KiB time=00:00:01.91 bitrate=   3.0kbits/s speed=0.0636x elapsed=0:00:30.15    \nframe=  117 fps=3.8 q=21.0 size=       1KiB time=00:00:01.93 bitrate=   2.9kbits/s speed=0.0628x elapsed=0:00:30.79    \nframe=  120 fps=3.8 q=25.0 size=       1KiB time=00:00:01.98 bitrate=   2.9kbits/s speed=0.0631x elapsed=0:00:31.43    \nframe=  123 fps=3.8 q=25.0 size=       1KiB time=00:00:02.03 bitrate=   2.8kbits/s speed=0.0636x elapsed=0:00:31.97    \nframe=  130 fps=4.0 q=26.0 size=       1KiB time=00:00:02.15 bitrate=   2.6kbits/s speed=0.0661x elapsed=0:00:32.53    \nframe=  132 fps=4.0 q=26.0 size=       1KiB time=00:00:02.18 bitrate=   2.6kbits/s speed=0.066x elapsed=0:00:33.08    \nframe=  133 fps=3.9 q=23.0 size=       1KiB time=00:00:02.20 bitrate=   2.6kbits/s speed=0.0652x elapsed=0:00:33.73    \nframe=  134 fps=3.9 q=25.0 size=       1KiB time=00:00:02.21 bitrate=   2.6kbits/s speed=0.0645x elapsed=0:00:34.36    \nframe=  137 fps=3.9 q=21.0 size=       1KiB time=00:00:02.26 bitrate=   2.5kbits/s speed=0.065x elapsed=0:00:34.88    \nframe=  142 fps=4.0 q=29.0 size=       1KiB time=00:00:02.35 bitrate=   2.4kbits/s speed=0.0664x elapsed=0:00:35.41    \nframe=  146 fps=4.1 q=30.0 size=       1KiB time=00:00:02.41 bitrate=   2.4kbits/s speed=0.0672x elapsed=0:00:35.93    \nframe=  148 fps=4.1 q=30.0 size=       1KiB time=00:00:02.45 bitrate=   2.3kbits/s speed=0.0672x elapsed=0:00:36.46    \nframe=  149 fps=4.0 q=26.0 size=       1KiB time=00:00:02.46 bitrate=   2.3kbits/s speed=0.0665x elapsed=0:00:37.10    \nframe=  150 fps=4.0 q=31.0 size=       1KiB time=00:00:02.46 bitrate=   2.3kbits/s speed=0.0654x elapsed=0:00:37.69    \nframe=  153 fps=4.0 q=23.0 size=       1KiB time=00:00:02.53 bitrate=   2.2kbits/s speed=0.0662x elapsed=0:00:38.24    \nframe=  155 fps=4.0 q=30.0 size=       1KiB time=00:00:02.56 bitrate=   2.2kbits/s speed=0.0662x elapsed=0:00:38.80    \nframe=  159 fps=4.0 q=30.0 size=       1KiB time=00:00:02.63 bitrate=   2.2kbits/s speed=0.0669x elapsed=0:00:39.34    \nframe=  163 fps=4.1 q=32.0 size=       1KiB time=00:00:02.70 bitrate=   2.1kbits/s speed=0.0677x elapsed=0:00:39.87    \nframe=  164 fps=4.1 q=33.0 size=       1KiB time=00:00:02.71 bitrate=   2.1kbits/s speed=0.0672x elapsed=0:00:40.40    \nframe=  165 fps=4.0 q=30.0 size=       1KiB time=00:00:02.73 bitrate=   2.1kbits/s speed=0.0666x elapsed=0:00:41.02    \nframe=  167 fps=4.0 q=30.0 size=       1KiB time=00:00:02.76 bitrate=   2.1kbits/s speed=0.0665x elapsed=0:00:41.60    \nframe=  169 fps=4.0 q=27.0 size=       1KiB time=00:00:02.80 bitrate=   2.0kbits/s speed=0.0664x elapsed=0:00:42.14    \nframe=  172 fps=4.0 q=33.0 size=       1KiB time=00:00:02.85 bitrate=   2.0kbits/s speed=0.0668x elapsed=0:00:42.67    \nframe=  175 fps=4.0 q=31.0 size=       1KiB time=00:00:02.90 bitrate=   2.0kbits/s speed=0.0671x elapsed=0:00:43.21    \nframe=  178 fps=4.1 q=33.0 size=       1KiB time=00:00:02.95 bitrate=   1.9kbits/s speed=0.0674x elapsed=0:00:43.76    \nframe=  180 fps=4.1 q=33.0 size=       1KiB time=00:00:02.98 bitrate=   1.9kbits/s speed=0.0673x elapsed=0:00:44.31    \nframe=  181 fps=4.0 q=31.0 size=       1KiB time=00:00:03.00 bitrate=   1.9kbits/s speed=0.0667x elapsed=0:00:44.97    \nframe=  181 fps=4.0 q=31.0 size=       1KiB time=00:00:03.00 bitrate=   1.9kbits/s speed=0.0659x elapsed=0:00:45.51    \nframe=  183 fps=4.0 q=31.0 size=       1KiB time=00:00:03.03 bitrate=   1.9kbits/s speed=0.0659x elapsed=0:00:46.03    \nframe=  187 fps=4.0 q=31.0 size=       1KiB time=00:00:03.10 bitrate=   1.8kbits/s speed=0.0666x elapsed=0:00:46.55    \nframe=  188 fps=4.0 q=34.0 size=       1KiB time=00:00:03.11 bitrate=   1.8kbits/s speed=0.0662x elapsed=0:00:47.08    \nframe=  191 fps=4.0 q=32.0 size=       1KiB time=00:00:03.16 bitrate=   1.8kbits/s speed=0.0665x elapsed=0:00:47.60    \nframe=  194 fps=4.0 q=34.0 size=       1KiB time=00:00:03.21 bitrate=   1.8kbits/s speed=0.0668x elapsed=0:00:48.14    \nframe=  196 fps=4.0 q=34.0 size=       1KiB time=00:00:03.25 bitrate=   1.8kbits/s speed=0.0667x elapsed=0:00:48.68    \nframe=  196 fps=4.0 q=34.0 size=       1KiB time=00:00:03.25 bitrate=   1.8kbits/s speed=0.0659x elapsed=0:00:49.31    \nframe=  197 fps=3.9 q=32.0 size=       1KiB time=00:00:03.26 bitrate=   1.7kbits/s speed=0.0655x elapsed=0:00:49.87    \nframe=  198 fps=3.9 q=34.0 size=       1KiB time=00:00:03.28 bitrate=   1.7kbits/s speed=0.0651x elapsed=0:00:50.41    \nframe=  205 fps=4.0 q=30.0 size=       1KiB time=00:00:03.40 bitrate=   1.7kbits/s speed=0.0667x elapsed=0:00:50.97    \nframe=  205 fps=4.0 q=30.0 size=       1KiB time=00:00:03.40 bitrate=   1.7kbits/s speed=0.066x elapsed=0:00:51.54    \nframe=  205 fps=3.9 q=30.0 size=       1KiB time=00:00:03.40 bitrate=   1.7kbits/s speed=0.0653x elapsed=0:00:52.06    \nframe=  209 fps=4.0 q=24.0 size=       1KiB time=00:00:03.46 bitrate=   1.6kbits/s speed=0.0659x elapsed=0:00:52.60    \nframe=  213 fps=4.0 q=33.0 size=       1KiB time=00:00:03.53 bitrate=   1.6kbits/s speed=0.0665x elapsed=0:00:53.15    \nframe=  213 fps=4.0 q=33.0 size=       1KiB time=00:00:03.53 bitrate=   1.6kbits/s speed=0.0658x elapsed=0:00:53.67    \nframe=  217 fps=4.0 q=30.0 size=       1KiB time=00:00:03.60 bitrate=   1.6kbits/s speed=0.0664x elapsed=0:00:54.20    \nframe=  217 fps=4.0 q=30.0 size=       1KiB time=00:00:03.60 bitrate=   1.6kbits/s speed=0.0658x elapsed=0:00:54.73    \nframe=  217 fps=3.9 q=30.0 size=       1KiB time=00:00:03.60 bitrate=   1.6kbits/s speed=0.0652x elapsed=0:00:55.24    \nframe=  217 fps=3.9 q=30.0 size=       1KiB time=00:00:03.60 bitrate=   1.6kbits/s speed=0.0646x elapsed=0:00:55.75    \nframe=  221 fps=3.9 q=32.0 size=       1KiB time=00:00:03.66 bitrate=   1.6kbits/s speed=0.0652x elapsed=0:00:56.27    \nframe=  221 fps=3.9 q=32.0 size=       1KiB time=00:00:03.66 bitrate=   1.6kbits/s speed=0.0646x elapsed=0:00:56.80    \nframe=  225 fps=3.9 q=24.0 size=       1KiB time=00:00:03.73 bitrate=   1.5kbits/s speed=0.0651x elapsed=0:00:57.33    \nframe=  229 fps=4.0 q=35.0 size=       1KiB time=00:00:03.80 bitrate=   1.5kbits/s speed=0.0657x elapsed=0:00:57.87    \nframe=  233 fps=4.0 q=33.0 size=       1KiB time=00:00:03.86 bitrate=   1.5kbits/s speed=0.0662x elapsed=0:00:58.39    \nframe=  233 fps=4.0 q=33.0 size=       1KiB time=00:00:03.86 bitrate=   1.5kbits/s speed=0.0656x elapsed=0:00:58.91    \nframe=  233 fps=3.9 q=33.0 size=       1KiB time=00:00:03.86 bitrate=   1.5kbits/s speed=0.065x elapsed=0:00:59.44    \nframe=  237 fps=4.0 q=36.0 size=       1KiB time=00:00:03.93 bitrate=   1.4kbits/s speed=0.0656x elapsed=0:00:59.99    \nframe=  237 fps=3.9 q=36.0 size=       1KiB time=00:00:03.93 bitrate=   1.4kbits/s speed=0.065x elapsed=0:01:00.52    \nframe=  241 fps=3.9 q=25.0 size=       1KiB time=00:00:04.00 bitrate=   1.4kbits/s speed=0.0655x elapsed=0:01:01.06    \nframe=  245 fps=4.0 q=37.0 size=       1KiB time=00:00:04.06 bitrate=   1.4kbits/s speed=0.066x elapsed=0:01:01.57    \nframe=  245 fps=3.9 q=37.0 size=       1KiB time=00:00:04.06 bitrate=   1.4kbits/s speed=0.0655x elapsed=0:01:02.08    \nframe=  249 fps=4.0 q=36.0 size=       1KiB time=00:00:04.13 bitrate=   1.4kbits/s speed=0.066x elapsed=0:01:02.61    \nframe=  249 fps=3.9 q=36.0 size=       1KiB time=00:00:04.13 bitrate=   1.4kbits/s speed=0.0655x elapsed=0:01:03.13    \nframe=  249 fps=3.9 q=36.0 size=       1KiB time=00:00:04.13 bitrate=   1.4kbits/s speed=0.0649x elapsed=0:01:03.65    \nframe=  253 fps=3.9 q=37.0 size=       1KiB time=00:00:04.20 bitrate=   1.4kbits/s speed=0.0654x elapsed=0:01:04.19    \nframe=  253 fps=3.9 q=37.0 size=       1KiB time=00:00:04.20 bitrate=   1.4kbits/s speed=0.0649x elapsed=0:01:04.69    \nframe=  257 fps=3.9 q=27.0 size=       1KiB time=00:00:04.26 bitrate=   1.3kbits/s speed=0.0654x elapsed=0:01:05.22    \nframe=  261 fps=4.0 q=37.0 size=    5120KiB time=00:00:04.33 bitrate=9679.2kbits/s speed=0.0659x elapsed=0:01:05.76    \nframe=  265 fps=4.0 q=36.0 size=    5120KiB time=00:00:04.40 bitrate=9532.5kbits/s speed=0.0664x elapsed=0:01:06.29    \nframe=  265 fps=4.0 q=36.0 size=    5120KiB time=00:00:04.40 bitrate=9532.5kbits/s speed=0.0659x elapsed=0:01:06.81    \nframe=  265 fps=3.9 q=36.0 size=    5120KiB time=00:00:04.40 bitrate=9532.5kbits/s speed=0.0654x elapsed=0:01:07.32    \nframe=  265 fps=3.9 q=36.0 size=    5120KiB time=00:00:04.40 bitrate=9532.5kbits/s speed=0.0648x elapsed=0:01:07.84    \nframe=  269 fps=3.9 q=37.0 size=    5120KiB time=00:00:04.46 bitrate=9390.2kbits/s speed=0.0653x elapsed=0:01:08.38    \nframe=  269 fps=3.9 q=37.0 size=    5120KiB time=00:00:04.46 bitrate=9390.2kbits/s speed=0.0648x elapsed=0:01:08.90    \nframe=  273 fps=3.9 q=27.0 size=    5120KiB time=00:00:04.53 bitrate=9252.1kbits/s speed=0.0653x elapsed=0:01:09.45    \nframe=  277 fps=4.0 q=37.0 size=    5120KiB time=00:00:04.60 bitrate=9118.1kbits/s speed=0.0657x elapsed=0:01:10.00    \nframe=  279 fps=4.0 q=38.0 size=    5120KiB time=00:00:04.63 bitrate=9052.5kbits/s speed=0.0657x elapsed=0:01:10.53    \nframe=  281 fps=4.0 q=36.0 size=    5120KiB time=00:00:04.66 bitrate=8987.8kbits/s speed=0.0657x elapsed=0:01:11.05    \nframe=  281 fps=3.9 q=36.0 size=    5120KiB time=00:00:04.66 bitrate=8987.8kbits/s speed=0.0652x elapsed=0:01:11.57    \nframe=  281 fps=3.9 q=36.0 size=    5120KiB time=00:00:04.66 bitrate=8987.8kbits/s speed=0.0647x elapsed=0:01:12.10    \nframe=  285 fps=3.9 q=38.0 size=    5120KiB time=00:00:04.73 bitrate=8861.2kbits/s speed=0.0652x elapsed=0:01:12.63    \nframe=  285 fps=3.9 q=38.0 size=    5120KiB time=00:00:04.73 bitrate=8861.2kbits/s speed=0.0647x elapsed=0:01:13.15    \n[out#0/matroska @ 000002860bd0cd80] video:6015KiB audio:0KiB subtitle:0KiB other streams:0KiB global headers:0KiB muxing overhead: 0.036270%\nframe=  300 fps=4.1 q=38.0 Lsize=    6017KiB time=00:00:04.98 bitrate=9891.5kbits/s speed=0.0678x elapsed=0:01:13.50    \n",
  "seconds": 73.89846920967102,
  "probe_out": {}
}